<svg width="210" height="44" viewBox="0 0 210 44" fill="none" xmlns="http://www.w3.org/2000/svg">
<path d="M7.112 3.063H0V42.577H7.112V3.063Z" fill="#045940"/>
<path d="M21.2839 16.497H14.1719V42.576H21.2839V16.497Z" fill="#045940"/>
<path d="M36.6652 16.497H42.4072V22.503H36.6652V42.576H29.5532V22.503H25.8652V16.497H29.5532V12.23C29.5532 5.69699 33.3472 2.42999 39.6162 2.42999C40.9377 2.42996 42.2519 2.62541 43.5162 3.00999V8.96399C42.8182 8.86458 42.1143 8.8118 41.4092 8.80599C38.1952 8.80599 36.6672 9.91199 36.6672 12.862L36.6652 16.497Z" fill="#045940"/>
<path d="M52.0496 31.933C52.8926 35.252 55.5796 37.096 59.3726 37.096C62.0238 37.0629 64.5859 36.1343 66.6426 34.461L69.5986 39.309C66.7031 41.8206 62.9997 43.2051 59.1666 43.209C51.1066 43.367 44.7306 37.098 44.8896 29.564C44.8632 27.7651 45.198 25.9791 45.8741 24.3118C46.5502 22.6446 47.5539 21.1299 48.8258 19.8574C50.0977 18.585 51.6119 17.5806 53.2789 16.9038C54.9459 16.2269 56.7317 15.8914 58.5306 15.917C60.1444 15.861 61.7526 16.1349 63.2569 16.722C64.7611 17.3091 66.1297 18.1971 67.2788 19.3315C68.4279 20.4659 69.3334 21.823 69.9399 23.3195C70.5463 24.8161 70.8409 26.4206 70.8056 28.035C70.8012 29.3491 70.6421 30.6581 70.3316 31.935L52.0496 31.933ZM63.9036 26.928C63.8997 26.2057 63.7484 25.4918 63.459 24.83C63.1695 24.1683 62.748 23.5725 62.2203 23.0793C61.6925 22.5862 61.0697 22.2059 60.3899 21.9618C59.71 21.7178 58.9875 21.6151 58.2666 21.66C56.781 21.6837 55.3495 22.2216 54.216 23.1821C53.0824 24.1426 52.3168 25.4664 52.0496 26.928H63.9036Z" fill="#045940"/>
<path d="M116.27 16.497L104.153 43.208H101.835L94.3529 28.035L86.8189 43.208H84.5009L72.3809 16.497H79.8619L86.0269 31.354L93.1389 15.917H95.5089L102.727 31.038L108.786 16.497H116.27Z" fill="#045940"/>
<path d="M131.862 15.917C139.501 15.817 146.034 22.081 145.876 29.51C146.034 36.939 139.448 43.31 131.809 43.156C129.996 43.1872 128.195 42.8574 126.511 42.186C124.827 41.5145 123.293 40.5147 121.998 39.2448C120.704 37.9749 119.675 36.4602 118.972 34.789C118.269 33.1177 117.905 31.3232 117.901 29.51C117.743 22.082 124.223 15.759 131.862 15.917ZM131.862 22.397C127.911 22.397 125.118 25.397 125.118 29.563C125.118 33.619 127.911 36.622 131.862 36.622C132.775 36.6241 133.679 36.4406 134.519 36.0826C135.359 35.7245 136.118 35.1994 136.749 34.5392C137.379 33.879 137.869 33.0974 138.189 32.2419C138.508 31.3865 138.65 30.4751 138.606 29.563C138.652 28.6453 138.512 27.7278 138.195 26.8655C137.877 26.0033 137.389 25.2139 136.759 24.5448C136.13 23.8757 135.371 23.3405 134.53 22.9715C133.688 22.6024 132.781 22.407 131.862 22.397Z" fill="#045940"/>
<path d="M163.893 15.917C171.532 15.817 178.065 22.081 177.907 29.51C178.065 36.939 171.479 43.31 163.84 43.156C162.027 43.1873 160.225 42.8577 158.541 42.1862C156.856 41.5148 155.322 40.5151 154.028 39.2451C152.734 37.9752 151.705 36.4605 151.001 34.7892C150.298 33.1179 149.934 31.3233 149.931 29.51C149.773 22.082 156.253 15.759 163.893 15.917ZM163.893 22.397C159.942 22.397 157.149 25.397 157.149 29.563C157.149 33.619 159.942 36.622 163.893 36.622C164.806 36.6241 165.71 36.4406 166.55 36.0826C167.39 35.7245 168.148 35.1994 168.779 34.5392C169.41 33.879 169.9 33.0974 170.219 32.2419C170.538 31.3865 170.68 30.4751 170.637 29.563C170.682 28.6453 170.542 27.7278 170.225 26.8655C169.907 26.0033 169.419 25.2139 168.79 24.5448C168.16 23.8757 167.402 23.3405 166.56 22.9715C165.719 22.6024 164.811 22.407 163.893 22.397Z" fill="#045940"/>
<path d="M209.515 3.062V42.576H202.982V39.361C201.244 41.838 198.188 43.207 194.605 43.207C187.335 43.207 181.961 37.407 181.961 29.562C181.961 21.717 187.335 15.916 194.605 15.916C196.052 15.8431 197.498 16.0831 198.844 16.6196C200.19 17.1562 201.405 17.9766 202.405 19.025V3.062H209.515ZM195.922 22.345C192.129 22.345 189.178 25.245 189.178 29.51C189.178 33.883 192.078 36.728 195.922 36.728C199.505 36.728 202.508 34.251 202.508 29.563C202.508 24.926 199.508 22.345 195.922 22.345Z" fill="#045940"/>
<path d="M21.2839 9.434L17.7279 12.609L14.1719 9.434V3.159L17.7279 0L21.2839 3.16V9.434Z" fill="#F9A51A"/>
</svg>
